PathFileType	4	(X/Y/Z)	TVC_32_BWA_07_walk_RCNL2025.trc
DataRate	CameraRate	NumFrames	NumMarkers	Units	OrigDataRate	OrigDataStartFrame	OrigNumFrames
100	100	7	27	mm	100	35	272
Frame#	Time	R_Shoulder			L_Shoulder			C7			J_Notch			R_Elbow			L_Elbow			R_Wrist			L_Wrist			R_Asis			L_Asis			R_Psis			L_Psis			Sacral			Thoracic			Sternum			R_Thigh_Lateral			R_Knee_Lateral			R_Shank_Lateral			R_Ankle_Lateral			R_Heel			R_Toe			L_Thigh_Lateral			L_Knee_Lateral			L_Shank_Lateral			L_Ankle_Lateral			L_Heel			L_Toe		
		X1	Y1	Z1	X2	Y2	Z2	X3	Y3	Z3	X4	Y4	Z4	X5	Y5	Z5	X6	Y6	Z6	X7	Y7	Z7	X8	Y8	Z8	X9	Y9	Z9	X10	Y10	Z10	X11	Y11	Z11	X12	Y12	Z12	X13	Y13	Z13	X14	Y14	Z14	X15	Y15	Z15	X16	Y16	Z16	X17	Y17	Z17	X18	Y18	Z18	X19	Y19	Z19	X20	Y20	Z20	X21	Y21	Z21	X22	Y22	Z22	X23	Y23	Z23	X24	Y24	Z24	X25	Y25	Z25	X26	Y26	Z26	X27	Y27	Z27
35	0.34000000	-660.591492	1460.561157	-299.217926	-651.511780	1434.872314	-674.284546	-697.963623	1501.185181	-491.130707	-544.658936	1396.204590	-473.551483	-792.833862	1142.298950	-173.699219	-559.656067	1135.000366	-810.793823	-782.130920	869.136841	-223.829781	-316.841370	1017.740021	-780.719818	-619.126404	984.780945	-332.876617	-643.100037	1004.344543	-616.219727	-814.081360	1012.068909	-404.148132	-821.234314	1017.592224	-505.504211	-817.657837	1014.830566	-454.826172	-785.563782	1242.507690	-466.011230	-523.843689	1250.539673	-478.282715	-640.375977	602.252808	-273.538849	-527.715027	503.922028	-316.106201	-500.935272	302.328461	-249.663132	-396.168610	97.229034	-307.733582	-432.909271	51.223724	-374.342743	-243.499985	114.805435	-313.856628	-761.879028	666.627502	-672.425293	-788.966797	501.102203	-606.495422	-840.769287	350.638306	-669.998230	-867.721130	74.467834	-602.036926	-938.181091	64.832230	-556.741516	-729.818970	39.756767	-575.516846
36	0.35000000	-652.054260	1459.209595	-296.926117	-642.421814	1433.871338	-671.941833	-688.969910	1499.950928	-488.740784	-535.478455	1395.237305	-471.133881	-787.647888	1142.053223	-172.577133	-550.392761	1134.237549	-808.714050	-779.341370	868.893250	-223.217949	-306.016754	1020.839264	-777.890991	-609.063965	982.828796	-331.980957	-633.776306	1002.964844	-615.014282	-804.320801	1010.651794	-402.636505	-811.768372	1016.165771	-504.062469	-808.044586	1013.408783	-453.349487	-776.076721	1241.052490	-464.162109	-514.368225	1249.600464	-476.311554	-627.057129	602.791931	-271.751953	-517.616638	502.726318	-315.242676	-494.718719	299.429688	-250.812347	-392.211090	94.125191	-309.191956	-429.160583	49.290928	-376.268616	-239.636765	108.497055	-315.054962	-754.077393	665.598938	-671.820862	-783.540222	500.444458	-605.879272	-836.973511	350.605225	-669.709045	-867.332825	74.807846	-601.945251	-937.960144	65.567451	-556.667786	-729.778015	39.729305	-575.443970
37	0.36000000	-643.348633	1457.866333	-294.525604	-633.264221	1432.964722	-669.530151	-679.893860	1498.845703	-486.245483	-526.230469	1394.361328	-468.668182	-782.033813	1141.728760	-171.340775	-541.210938	1133.419312	-806.429016	-776.125793	868.615631	-222.476227	-295.570908	1023.342163	-774.887024	-599.037781	980.971802	-331.002289	-624.421631	1001.589783	-613.744446	-794.595764	1009.357971	-401.104980	-802.311768	1014.833252	-502.599762	-798.453766	1012.095612	-451.852371	-766.571045	1239.739624	-462.266785	-504.866058	1248.753662	-474.299225	-611.844421	604.186218	-268.762604	-507.055542	501.704437	-314.034485	-488.846344	296.484619	-251.814835	-389.601440	90.634079	-310.628723	-427.297821	47.390408	-378.031250	-237.121216	100.686699	-316.782715	-746.193420	664.569214	-671.225647	-778.010620	499.843445	-605.218201	-833.105408	350.640564	-669.414368	-866.900146	75.267570	-601.880798	-937.697083	66.476700	-556.636475	-729.735962	39.706371	-575.377686
38	0.37000000	-634.470032	1456.567017	-292.024750	-624.036926	1432.193481	-667.058472	-670.733337	1497.903687	-483.653564	-516.917480	1393.604370	-466.165527	-775.964294	1141.340942	-170.000504	-532.124817	1132.580566	-803.942444	-772.459869	868.317291	-221.601303	-285.509537	1025.236084	-771.725647	-589.069702	979.266235	-329.936462	-615.054199	1000.265503	-612.408813	-784.919312	1008.230652	-399.550232	-792.878235	1013.642578	-501.110504	-788.898773	1010.936615	-450.330368	-757.056091	1238.611084	-460.327728	-495.345245	1248.026123	-472.256470	-595.964661	605.910095	-265.189758	-496.191284	500.868805	-312.563599	-482.816040	293.827667	-252.452118	-387.592010	87.121262	-311.819763	-426.526978	45.795918	-379.375031	-235.165909	92.077080	-318.783142	-738.273071	663.601868	-670.609680	-772.361084	499.338867	-604.499146	-829.169006	350.794464	-669.086548	-866.411011	75.885635	-601.831421	-937.374878	67.611259	-556.630005	-729.685974	39.689991	-575.317688
39	0.38000000	-625.415710	1455.350586	-289.433746	-614.739929	1431.598145	-664.535461	-661.487976	1497.157715	-480.974792	-507.543243	1392.993652	-463.637604	-769.414490	1140.910400	-168.569077	-523.150208	1131.760010	-801.259644	-768.318298	868.013519	-220.589645	-275.842819	1026.516022	-768.424011	-579.180786	977.770874	-328.780518	-605.692932	999.046936	-611.004639	-775.302002	1007.312866	-397.965729	-783.480225	1012.642700	-499.586395	-779.391113	1009.977783	-448.776062	-747.541321	1237.707153	-458.345520	-485.814117	1247.443970	-470.193817	-580.585999	607.525513	-261.683075	-485.177795	500.242828	-310.914734	-476.108978	291.771606	-252.519196	-385.577515	83.913536	-312.621277	-426.160919	44.728809	-380.152100	-233.159668	83.349899	-320.789093	-730.347229	662.768921	-669.935486	-766.564331	498.972046	-603.712402	-825.162292	351.121643	-668.695374	-865.850281	76.702408	-601.782715	-936.972534	69.024231	-556.623901	-729.617859	39.681965	-575.263428
40	0.39000000	-616.185303	1454.258057	-286.764526	-605.376404	1431.216675	-661.969177	-652.159119	1496.637695	-478.219910	-498.112823	1392.554810	-461.096313	-762.363892	1140.461670	-167.060425	-514.303833	1130.998169	-798.388245	-763.674866	867.721313	-219.437737	-266.585434	1027.184540	-764.998657	-569.390076	976.543518	-327.531738	-596.357239	997.995117	-609.528931	-765.751160	1006.645996	-396.342255	-774.128784	1011.881592	-498.016663	-769.939972	1009.263794	-447.179459	-738.036194	1237.064575	-456.318726	-476.281494	1247.031738	-468.121216	-566.677734	608.794006	-258.771362	-474.157562	499.851501	-309.170410	-468.303284	290.542267	-251.869385	-383.194885	81.238678	-312.993378	-425.721161	44.295712	-380.339050	-230.777313	75.073456	-322.593231	-722.429749	662.145691	-669.163208	-760.583984	498.782867	-602.855225	-821.078003	351.676300	-668.212646	-865.200989	77.756096	-601.719604	-936.465271	70.765671	-556.589661	-729.518921	39.683224	-575.214539
41	0.40000000	-606.781250	1453.330811	-284.030396	-595.953186	1431.082031	-659.367065	-642.750488	1496.369141	-475.400269	-488.633057	1392.310181	-458.553497	-754.796631	1140.022583	-165.488708	-505.602814	1130.336060	-795.338745	-758.502625	867.458252	-218.142258	-257.756020	1027.252411	-761.465546	-559.712769	975.637085	-326.186890	-587.067139	997.173462	-607.978882	-756.270874	1006.266479	-394.668732	-764.833252	1011.403381	-496.388916	-760.552063	1008.834930	-445.528824	-728.549927	1236.713989	-454.243652	-466.756592	1246.810791	-466.047882	-554.825378	609.705017	-256.712280	-463.262054	499.710571	-307.407898	-459.208984	290.219482	-250.470474	-380.362213	79.201118	-312.999939	-424.974701	44.467392	-380.027924	-228.004425	67.645470	-324.095459	-714.519653	661.804443	-668.257202	-754.377319	498.805969	-601.934265	-816.904846	352.506927	-667.617188	-864.445312	79.078728	-601.628906	-935.825745	72.877884	-556.498108	-729.375061	39.693146	-575.171570
